<svg width="32" height="24" viewBox="0 0 32 24" fill="none" xmlns="http://www.w3.org/2000/svg">
<rect width="32" height="24" rx="4" fill="#F6F6FA"/>
<path d="M17.682 8.84378L15.8652 12.7583H15.6814V8.00032H13.0859V16.0024H15.238C15.8219 16.0024 16.341 15.6672 16.5898 15.1481L18.4174 11.2444H18.6012V16.0024H21.1966V8.00032H19.0121C18.4498 8.00032 17.9199 8.33554 17.682 8.84378Z" fill="#319B42"/>
<path d="M7.97268 9.04924L6.90207 12.7583H6.71822L5.6368 9.04924C5.45296 8.42205 4.8798 8.00032 4.23095 8.00032H1.66797V16.0024H4.26339V11.2444H4.44723L5.9396 16.0024H7.66988L9.16225 11.2444H9.34609V16.0024H11.9415V8.00032H9.37853C8.72968 8.00032 8.14571 8.42205 7.97268 9.04924Z" fill="#319B42"/>
<path d="M22.3247 11.5674V16.0024H24.9209V13.4063H27.7119C28.9235 13.4063 29.9512 12.6383 30.3298 11.5674H22.3247Z" fill="#319B42"/>
<path d="M27.636 8.00032H21.8594C22.2164 9.90412 23.8823 11.2454 25.8836 11.2454H30.3729C30.4054 11.0724 30.427 10.8777 30.427 10.683C30.427 9.13611 29.183 8.00032 27.636 8.00032Z" fill="url(#paint0_linear_17_2031)"/>
<defs>
<linearGradient id="paint0_linear_17_2031" x1="21.8594" y1="9.62288" x2="30.427" y2="9.62288" gradientUnits="userSpaceOnUse">
<stop stop-color="#00A3E1"/>
<stop offset="0.3042" stop-color="#009ADD"/>
<stop offset="0.7987" stop-color="#0082D4"/>
<stop offset="1" stop-color="#0076CF"/>
</linearGradient>
</defs>
</svg>
